<svg xmlns="http://www.w3.org/2000/svg" width="772" height="805" viewBox="0 0 772 805" fill="none"><path fill-rule="evenodd" clip-rule="evenodd" d="M598.858 1.40184C557.347 7.44784 519.342 29.0798 497.087 59.3288C489.32 69.8868 484.49 79.2698 480.302 91.9358C471.339 119.047 473.241 151.134 485.221 174.897C498.772 201.779 521.969 221.148 546.665 226.202C553.766 227.655 554.368 228 558.953 233.226C567.771 243.279 583.169 251.667 599.846 255.5C611.178 258.106 637.089 257.84 650.448 254.982C664.852 251.899 677.482 247.543 689.699 241.443C740.735 215.961 771.279 172.553 771.052 125.826C770.842 82.5208 747.32 44.8528 705.835 21.3878C688.355 11.5008 667.841 4.57184 646.199 1.24484C634.987 -0.478157 611.225 -0.400156 598.858 1.40184ZM604.699 7.85085C570.03 12.6348 539.872 26.3878 517.624 47.5598C501.862 62.5588 493.111 76.2048 486.729 95.7328C471.928 141.027 491.941 193.377 531.692 213.347C538.293 216.663 548.942 219.826 553.503 219.826C556.325 219.826 557.852 220.926 563.854 227.285C571.894 235.802 577.221 239.505 587.571 243.773C599.216 248.575 608.368 250.155 624.199 250.097C646.988 250.012 664.034 245.731 687.199 234.273C724.945 215.603 749.685 187.894 760.811 151.826C762.858 145.19 763.129 142.253 763.159 126.326C763.188 110.579 762.904 107.262 760.884 99.8258C758.178 89.8618 749.477 71.5628 743.879 64.0648C731.619 47.6418 714.931 33.9388 695.094 24.0078C684.529 18.7178 662.573 11.3548 651.199 9.28785C640.7 7.37885 614.079 6.55685 604.699 7.85085ZM614.199 47.5238C593.628 50.2518 578.195 63.3108 573.07 82.3258C571.394 88.5458 571.31 96.0368 572.899 97.6258C573.724 98.4508 578.717 98.8258 588.88 98.8258H603.661L604.225 96.0758C606.704 84.0028 611.062 78.4938 619.088 77.2898C630.733 75.5438 638.704 81.7378 638.695 92.5258C638.691 98.2088 636.501 102.254 631.049 106.648C628.932 108.355 624.411 112.015 621.003 114.781C609.43 124.173 605.625 132.15 604.93 148.476C604.491 158.778 604.603 159.704 606.408 160.67C608.198 161.628 635.503 161.355 636.489 160.369C636.7 160.159 637.028 156.786 637.218 152.875C637.715 142.661 639.566 139.666 651.178 130.289C663.08 120.677 668.708 114.063 671.701 106.17C679.659 85.1838 670.387 62.1988 650.111 52.6548C639.886 47.8418 626.366 45.9098 614.199 47.5238ZM614.699 54.7928C602.533 57.0618 596.08 60.4868 588.454 68.7228C583.202 74.3968 580.876 79.3218 579.08 88.5758L578.449 91.8258H588.003H597.557L599.104 86.5038C600.775 80.7558 605.551 74.9878 610.95 72.1958C615.174 70.0118 625.143 69.3168 630.697 70.8198C636.769 72.4618 644.057 79.7278 645.68 85.7568C647.803 93.6388 645.242 102.671 638.971 109.421C637.389 111.123 632.914 114.829 629.026 117.657C617.489 126.049 613.386 132.985 612.219 146.076L611.528 153.826H620.485H629.441L630.136 148.576C631.57 137.742 634.743 133.324 648.294 123.293C659.716 114.838 665.74 106.067 667.096 95.9138C667.851 90.2638 666.16 79.6448 663.76 74.9628C661.341 70.2438 653.365 62.2048 648.79 59.8758C639.999 55.3978 624.136 53.0338 614.699 54.7928ZM614.958 171.447C606.546 174.501 601.339 184.031 603.191 192.984C607.068 211.733 633.325 213.137 639.539 194.927C641.64 188.77 640.312 181.897 636.041 176.821C631.047 170.886 622.501 168.707 614.958 171.447ZM613.465 180.744C610.591 183.311 610.199 184.27 610.199 188.725C610.199 193.109 610.637 194.225 613.468 197.057C616.274 199.862 617.435 200.326 621.653 200.326C625.693 200.326 627.097 199.819 629.54 197.478C633.238 193.936 634.264 189.113 632.313 184.445C629.404 177.482 619.329 175.504 613.465 180.744ZM269.199 219.869C245.739 222.455 225.67 230.281 208.517 243.535C199.829 250.247 197.218 251.369 188.229 252.246C176.262 253.415 174.526 254.655 149.963 279.598C137.652 292.098 124.795 306.102 121.39 310.717C106.962 330.271 96.6641 343.864 90.1481 351.954C81.5731 362.6 76.5861 370.931 72.5821 381.298C69.9501 388.111 69.5581 390.292 69.8811 396.298C70.2321 402.831 70.7782 404.277 77.6272 416.826C94.9122 448.497 108.784 463.937 137.444 483.405C141.429 486.111 144.691 488.835 144.694 489.457C144.697 490.079 143.812 496.461 142.727 503.64C140.465 518.61 134.2 544.368 129.648 557.41C121.979 579.381 106.644 606.763 80.1882 645.719C73.6912 655.285 64.1382 670.135 58.9592 678.719C48.5302 696.003 28.1011 736.586 15.8641 764.326C11.4971 774.226 6.60214 785.251 4.98714 788.826C-0.404862 800.763 -0.67285 801.672 0.70015 803.327C1.38415 804.151 2.81215 804.826 3.87415 804.826C6.00815 804.826 5.33614 806.162 21.7251 769.326C35.7561 737.79 46.8742 714.874 56.6102 697.425C65.5852 681.34 67.8731 677.709 93.2262 639.326C114.252 607.494 119.671 598.291 128.005 580.262C138.089 558.447 146.044 530.904 149.791 504.826C150.463 500.151 151.336 495.955 151.731 495.501C152.126 495.047 154.868 497.503 157.824 500.958C167.903 512.737 177.049 521.841 181.312 524.339C187.678 528.07 196.924 530.148 203.6 529.348C229.493 526.243 243.716 498.02 243.674 449.826C243.651 423.695 240.939 408.624 230.81 378.326C222.151 352.423 220.466 344.218 220.334 327.326C220.198 309.901 222.167 301.718 230.743 284.063C234.019 277.319 236.699 271.411 236.699 270.936C236.699 269.26 233.772 267.668 231.826 268.286C228.242 269.423 217.677 293.332 214.574 307.326C212.474 316.797 212.95 340.332 215.474 351.826C217.399 360.588 222.564 377.737 227.673 392.326C241.594 432.08 238.956 489.268 222.185 511.255C214.914 520.789 201.263 524.311 189.211 519.764C184.309 517.914 181.859 516.058 175.711 509.54C157.562 490.298 149.535 482.791 139.699 475.858C111.755 456.164 103.022 446.404 84.7471 414.443C75.9881 399.126 75.1851 395.309 78.6731 385.561C82.2101 375.674 88.6491 365.558 102.691 347.826C109.878 338.751 118.332 327.571 121.479 322.982C129.88 310.728 131.957 308.359 154.741 285.056C177.83 261.44 179.264 260.446 192.36 258.981C201.667 257.94 201.857 257.852 212.99 249.456C227.739 238.332 242.067 232.132 262.199 228.165C273.222 225.992 308.817 225.746 329.699 227.698C368.334 231.31 383.383 238.035 409.634 263.419C418.219 271.721 427.136 279.708 429.45 281.169C432.05 282.81 434.809 285.831 436.669 289.076C440.469 295.701 440.566 297.106 437.134 295.801C432.257 293.947 427.751 294.62 424.716 297.655C422.029 300.342 419.717 306.129 419.705 310.198C419.7 311.827 419.483 311.892 418.043 310.698C416.307 309.259 408.699 294.266 408.699 292.284C408.699 290.372 405.096 287.737 403.382 288.394C400.472 289.511 400.551 292.588 403.678 299.935C409.328 313.215 416.651 322.618 427.699 330.779C436.026 336.932 438.313 338.049 461.334 347.214C471.859 351.404 483.109 356.042 486.334 357.522L492.199 360.213L482.904 361.552C466.202 363.957 457.047 369.122 451.613 379.205C448.793 384.436 448.503 385.725 448.973 390.911C450.075 403.064 458.162 410.88 470.994 412.195C480.076 413.125 490.181 410.564 493.578 406.472C496.087 403.449 497.472 397.755 496.619 393.973C495.613 389.511 493.405 387.826 488.564 387.826C483.249 387.826 479.919 391.042 478.785 397.272C477.746 402.973 475.775 404.828 470.758 404.822C458.937 404.81 452.427 390.023 459.776 379.878C465.589 371.853 481.748 367.038 499.474 368.049C505.806 368.41 509.477 369.172 512.717 370.797C520.268 374.586 525.699 380.826 525.699 385.713C525.699 387.417 525.211 387.621 522.272 387.144C519.508 386.696 518.362 387.072 516.339 389.095C513.551 391.883 512.127 397.409 513.148 401.478C513.516 402.944 515.381 405.708 517.294 407.621L520.771 411.098L518.485 414.498C517.228 416.368 513.768 419.748 510.798 422.009L505.397 426.119L506.167 421.723C509.588 402.186 509.666 400.411 507.142 399.443C504.541 398.444 502.763 399.957 502.169 403.673C500.911 411.535 498.533 422.462 497.499 425.128C496.718 427.144 495.962 427.741 494.806 427.257C493.922 426.886 490.95 425.736 488.202 424.701C485.454 423.665 481.036 421.47 478.386 419.822C475.735 418.174 472.726 416.826 471.7 416.826C469.077 416.826 468.123 420.532 470.165 422.788C472.256 425.099 481.502 430.037 488.949 432.821C492.112 434.003 494.699 435.5 494.699 436.148C494.699 436.796 494.052 440.417 493.262 444.195C491.485 452.687 489.466 454.988 479.699 459.65C469.664 464.44 460.167 470.908 448.699 480.764C423.334 502.563 409.583 506.317 378.699 499.874C363.417 496.686 351.047 497.439 348.769 501.695C348.192 502.773 348.348 503.993 349.214 505.177C350.422 506.83 351.08 506.889 356.278 505.81C359.43 505.155 363.852 504.895 366.104 505.23C376.989 506.853 394.697 510.29 394.685 510.777C394.677 511.079 390.335 513.092 385.035 515.25C373.278 520.038 363.057 521.102 354.886 518.388C347.017 515.775 338.543 509.759 334.223 503.722C322.604 487.483 319.184 485.651 287.009 478.428C275.781 475.907 266.712 472.078 259.131 466.657C250.52 460.5 248.667 467.585 257.199 474.043C264.565 479.618 275.296 483.679 291.133 486.883C314.363 491.584 316.46 492.735 327.682 506.941C338.908 521.154 350.105 527.085 365.699 527.079C372.315 527.077 375.845 526.494 381.624 524.451C385.708 523.007 389.235 521.826 389.463 521.826C389.69 521.826 387.133 524.82 383.779 528.48C376.68 536.227 368.629 551.735 363.871 566.826C357.865 585.873 351.187 623.147 345.552 669.067C343.366 686.883 343.338 687.894 344.994 689.55C346.34 690.895 347.131 691.045 348.468 690.207C350.25 689.09 350.961 685.178 353.625 661.826C354.639 652.94 357.201 634.912 359.293 621.946C359.991 617.622 361.051 618.819 363.174 626.326C365.089 633.096 378.441 667.012 388.961 691.826C409.329 739.871 414.232 757.762 416.297 791.571C417.019 803.407 417.909 805.529 421.651 804.341C423.465 803.766 423.699 802.869 423.699 796.502C423.699 787.19 421.242 766.304 418.65 753.585C415.941 740.29 411.827 727.688 404.229 709.407C378.69 647.958 374.061 636.129 367.649 615.933L363.397 602.541L364.59 594.743C366.1 584.883 371.759 564.945 375.811 555.212C382.864 538.269 395.415 524.107 409.649 517.03L417.099 513.326L433.649 513.276C452.959 513.217 456.148 512.493 472.545 504.445C480.231 500.673 485.129 498.923 489.325 498.448C492.825 498.052 496.624 496.867 498.608 495.552C500.456 494.328 504.699 491.751 508.039 489.826C521.969 481.796 526.675 468.614 526.719 437.504C526.73 429.706 527.157 420.433 527.668 416.897C528.191 413.282 528.222 409.796 527.739 408.933C527.15 407.88 527.608 406.534 529.201 404.642C531.591 401.801 533.699 394.215 533.699 388.455C533.699 382.904 530.794 376.283 526.302 371.595C520.036 365.055 494.312 352.267 460.699 338.98L448.199 334.039L448.19 315.182C448.183 299.467 447.885 295.576 446.402 291.826C443.549 284.617 440.217 280.325 432.979 274.539C429.25 271.558 422.374 265.184 417.699 260.373C394.59 236.595 373.746 225.764 343.699 221.923C321.76 219.118 285.166 218.109 269.199 219.869ZM527.199 239.887C522.873 241.157 516.965 246.384 514.587 251.046C509.969 260.098 513.096 272.468 521.47 278.273C529.988 284.178 544.117 282.67 550.719 275.15C554.848 270.448 555.824 267.584 555.824 260.168C555.824 253.172 554.419 249.812 549.534 245.127C543.583 239.418 535.365 237.49 527.199 239.887ZM529.199 247.333C518.703 251.047 516.389 263.981 524.916 271.279C530.336 275.919 536.355 276.384 542.473 272.638C546.556 270.138 548.699 266.111 548.699 260.941C548.699 255.373 547.353 252.419 543.511 249.548C539.202 246.329 534.216 245.557 529.199 247.333ZM199.99 277.033C198.376 279.07 194.836 290.607 193.196 299.178C192.336 303.672 191.699 312.636 191.699 320.238C191.699 343.107 195.513 359.017 207.379 385.649C214.828 402.368 216.401 404.591 219.577 402.891C220.744 402.267 221.699 401.048 221.699 400.183C221.699 399.318 218.806 392.471 215.271 384.968C204.185 361.44 199.957 345.663 199.02 324.326C198.375 309.627 199.354 301.539 203.357 288.489C205.371 281.922 205.802 279.213 205.028 277.983C203.679 275.841 201.292 275.391 199.99 277.033ZM488.199 279.731C485.08 281.115 480.749 286.164 479.779 289.548C478.337 294.575 480.31 301.278 484.25 304.737C496.062 315.107 514.023 302.672 508.211 288.148C506.008 282.641 501.524 279.531 495.239 279.15C492.467 278.982 489.299 279.243 488.199 279.731ZM315.445 282.912C306.645 284.986 296.897 291.839 289.58 301.095C285.186 306.655 284.836 308.294 287.712 309.833C290.331 311.235 291.634 310.397 296.556 304.146C307.654 290.052 326.9 284.889 340.327 292.404C344.717 294.861 345.688 295.08 347.077 293.927C350.842 290.803 347.851 286.972 338.929 283.492C334.276 281.677 321.974 281.373 315.445 282.912ZM490.462 287.391C485.4 290.138 485.514 297.104 490.67 300.15C496.021 303.311 501.699 300.013 501.699 293.744C501.699 290.859 501.079 289.483 499.064 287.899C495.976 285.469 494.197 285.364 490.462 287.391ZM323.199 301.188C317.481 303.106 310.259 308.173 300.337 317.229C291.65 325.158 289.656 328.828 293.281 330.219C295.951 331.244 296.797 330.933 299.651 327.878L302.405 324.929L305.802 329.48C309.869 334.928 316.925 338.796 324.086 339.504C328.005 339.891 331.068 339.37 337.199 337.27C341.83 335.685 348.568 334.277 353.199 333.929C360.477 333.38 361.227 333.126 361.514 331.113C361.903 328.373 345.37 306.442 340.355 303.046C336.177 300.217 328.557 299.392 323.199 301.188ZM436.731 308.076C436.685 313.433 433.54 316.396 428.449 315.878C426.321 315.662 426.287 316.128 428.162 319.754C430.09 323.482 432.5 324.316 434.946 322.102C439.532 317.953 441.154 310.132 438.231 306.267C436.855 304.448 436.761 304.562 436.731 308.076ZM335.81 312.351C335.93 314.537 335.73 317.226 335.366 318.326C334.566 320.743 329.425 323.826 326.195 323.826C323.177 323.826 318.098 319.55 317.289 316.329C316.459 313.022 315.388 313.168 311 317.189L307.33 320.552L312.351 325.573C319.231 332.453 325.384 333.802 333.976 330.313C336.844 329.148 340.699 321.609 340.699 317.162C340.699 314.179 340.056 312.57 338.145 310.775L335.591 308.376L335.81 312.351ZM346.426 323.432C345.46 324.399 346.804 326.826 348.306 326.826C349.072 326.826 349.699 326.431 349.699 325.948C349.699 324.701 347.131 322.727 346.426 323.432ZM439.366 327.493C438.215 328.643 438.637 329.826 440.199 329.826C441.024 329.826 441.699 329.151 441.699 328.326C441.699 326.764 440.516 326.342 439.366 327.493ZM515.138 427.956C512.905 429.824 509.236 432.182 506.985 433.197C502.892 435.043 502.891 435.045 500.262 445.537L497.633 456.03L501.603 460.337C506.158 465.28 508.175 471.335 507.327 477.525C506.608 482.769 508.313 482.519 512.079 476.827C517.288 468.957 518.944 461.669 519.464 444.326C520.095 423.286 520.209 423.717 515.138 427.956ZM481.087 467.132C470.251 472.745 465.231 476.332 450.552 488.95C445.408 493.372 437.833 498.978 433.72 501.408L426.241 505.826L437.22 505.814C450.749 505.8 455.867 504.494 470.125 497.42C478.263 493.382 482.799 491.752 487.232 491.271C490.55 490.911 494.033 490.055 494.971 489.369C499.277 486.221 501.06 475.018 498.305 468.425C497.095 465.53 493.316 461.758 491.726 461.86C491.436 461.878 486.648 464.25 481.087 467.132ZM324.799 530.394C307.879 546.059 296.735 568.623 290.27 600.311C288.762 607.702 289.304 609.826 292.699 609.826C295.298 609.826 296.28 608.034 297.628 600.826C302.457 575.019 313.893 551.257 328.279 537.142C331.745 533.741 334.661 530.366 334.758 529.642C335.119 526.968 334.651 526.047 332.665 525.527C331.178 525.139 329.06 526.449 324.799 530.394ZM245.18 679.885C244.661 681.522 246.233 683.722 252.863 690.635C257.448 695.415 263.279 701.801 265.821 704.826C282.556 724.737 296.341 753.328 301.501 778.826C303.126 786.856 303.373 787.344 305.966 787.643C307.748 787.849 308.92 787.413 309.309 786.401C311.029 781.918 303.062 753.544 295.81 738.326C286.525 718.842 276.435 704.61 259.829 687.576C249.977 677.47 246.523 675.656 245.18 679.885Z" fill="#C8BDBD"></path></svg>